<svg width="3975" height="621" viewBox="0 0 3975 621" fill="none" xmlns="http://www.w3.org/2000/svg">
<path d="M1049.71 148.128C1095.87 148.128 1133.31 163.7 1162.02 194.843C1190.96 225.987 1205.54 266.628 1205.76 316.767C1205.76 328.032 1205.21 337.75 1204.1 345.923H976.489C980.906 368.231 990.404 384.907 1004.98 395.951C1019.56 406.995 1037.56 412.517 1058.99 412.517C1072.9 412.517 1087.04 409.866 1101.39 404.565C1115.75 399.044 1128.67 391.423 1140.16 381.705L1190.85 437.366C1155.51 469.834 1109.9 486.069 1054.02 486.069C1004.54 486.069 964.34 470.718 933.418 440.016C902.716 409.093 887.365 368.452 887.365 318.092C887.365 267.512 902.385 226.539 932.424 195.175C962.463 163.81 1001.56 148.128 1049.71 148.128ZM1049.05 222.674C1029.17 222.674 1013.15 228.306 1001.01 239.571C988.858 250.835 980.796 266.628 976.82 286.949H1118.95C1114.98 266.407 1106.92 250.615 1094.77 239.571C1082.84 228.306 1067.6 222.674 1049.05 222.674Z" fill="#1227E4"/>
<path d="M602.223 14.5565V191.199C622.764 162.485 653.466 148.128 694.328 148.128C730.994 148.128 760.922 159.724 784.114 182.916C807.527 206.108 819.234 236.257 819.234 273.365V477.786H732.761V301.195C732.761 278.224 727.239 260.554 716.195 248.185C705.372 235.595 690.021 229.3 670.142 229.3C650.484 229.3 634.25 235.595 621.439 248.185C608.628 260.775 602.223 278.666 602.223 301.858V477.786H515.75V0.361328L602.223 14.5565Z" fill="#1227E4"/>
<path d="M244.149 5.32959C286.999 5.32959 326.094 14.6064 361.434 33.1601C396.995 51.4928 424.163 76.8935 442.938 109.362L363.422 158.066C350.17 137.745 333.273 122.063 312.731 111.019C292.19 99.7542 269.108 94.1219 243.486 94.1219C201.078 94.1219 166.069 108.258 138.46 136.53C110.85 164.802 97.0454 201.247 97.0454 245.864C97.2662 291.585 111.292 328.361 139.122 356.192C166.953 383.801 201.741 397.606 243.486 397.606C268.887 397.606 291.858 392.195 312.4 381.372C332.941 370.328 350.28 354.535 364.416 333.994L439.956 388.329C418.973 419.031 391.474 443.107 357.459 460.556C323.665 477.784 285.895 486.398 244.149 486.398C209.03 486.398 176.34 480.435 146.08 468.507C115.82 456.359 89.9773 439.793 68.5523 418.81C47.3482 397.606 30.672 372.095 18.5238 342.277C6.59648 312.458 0.632812 280.321 0.632812 245.864C0.632812 211.407 6.59648 179.27 18.5238 149.451C30.672 119.633 47.3482 94.2323 68.5523 73.2491C89.9773 52.045 115.82 35.4792 146.08 23.5519C176.34 11.4037 209.03 5.32959 244.149 5.32959Z" fill="#1227E4"/>
<path fill-rule="evenodd" clip-rule="evenodd" d="M1602.39 597.093H1204.57V481.935H1602.39V597.093Z" fill="#C1ED24"/>
<path d="M3929.94 152.438C3947.17 152.438 3962.19 154.757 3975 159.395L3962.08 245.206C3946.62 238.358 3929.17 234.935 3909.73 234.935C3889.19 234.935 3872.73 241.23 3860.36 253.82C3848.22 266.189 3842.14 283.969 3842.14 307.161V482.096H3755.67V161.052L3839.49 172.692V196.171C3858.93 167.015 3889.08 152.438 3929.94 152.438Z" fill="#1227E4"/>
<path d="M3664.72 172.854V482.096H3580.24V446.645C3556.6 475.801 3524.58 490.378 3484.15 490.378C3439.98 490.378 3402.98 474.254 3373.16 442.006C3343.57 409.759 3328.77 369.559 3328.77 321.408C3328.77 273.257 3343.57 233.057 3373.16 200.809C3402.98 168.562 3439.98 152.438 3484.15 152.438C3524.35 152.438 3556.38 167.126 3580.24 196.502V161.052L3664.72 172.854ZM3500.06 232.947C3475.32 232.947 3455.33 241.451 3440.09 258.458C3424.85 275.245 3417.23 296.228 3417.23 321.408C3417.23 346.588 3424.85 367.682 3440.09 384.689C3455.33 401.476 3475.32 409.869 3500.06 409.869C3524.58 409.869 3544.45 401.586 3559.69 385.02C3575.16 368.234 3582.89 347.03 3582.89 321.408C3582.89 295.786 3575.16 274.693 3559.69 258.127C3544.45 241.34 3524.58 232.947 3500.06 232.947Z" fill="#1227E4"/>
<path d="M3257.81 16.9157V482.091H3171.34V4.99756L3257.81 16.9157Z" fill="#1227E4"/>
<path d="M3080.51 172.673V482.093H2994.04V161.049L3080.51 172.673ZM2997.68 16.5958C3008.28 5.77281 3021.31 0.361328 3036.77 0.361328C3052.24 0.361328 3065.27 5.77281 3075.87 16.5958C3086.69 27.1978 3092.1 40.34 3092.1 56.0222C3092.1 71.4836 3086.8 84.5152 3076.2 95.1173C3065.6 105.719 3052.46 111.02 3036.77 111.02C3021.31 111.02 3008.28 105.719 2997.68 95.1173C2987.08 84.5152 2981.78 71.4836 2981.78 56.0222C2981.78 40.34 2987.08 27.1978 2997.68 16.5958Z" fill="#1227E4"/>
<path d="M2905.65 173.434V345.262C2905.65 369.779 2901.56 391.535 2893.39 410.531C2885.22 429.526 2873.95 444.766 2859.6 456.252C2845.46 467.517 2829.45 476.021 2811.56 481.763C2793.67 487.506 2774.45 490.377 2753.91 490.377C2737.56 490.377 2721.99 488.61 2707.19 485.076C2692.39 481.542 2678.48 476.021 2665.45 468.511C2652.64 460.78 2641.48 451.393 2631.98 440.349C2622.71 429.084 2615.31 415.39 2609.79 399.266C2604.49 382.921 2601.84 364.92 2601.84 345.262V161.051L2688.31 173.434V337.641C2688.31 362.159 2694.27 380.381 2706.2 392.308C2718.13 404.015 2734.03 409.868 2753.91 409.868C2773.79 409.868 2789.69 404.015 2801.62 392.308C2813.55 380.381 2819.51 362.159 2819.51 337.641V161.051L2905.65 173.434Z" fill="#1227E4"/>
<path d="M2329.23 152.438C2371.64 152.438 2404.77 167.236 2428.62 196.834V161.052L2513.44 173.616V455.59C2513.44 506.834 2497.87 547.144 2466.73 576.52C2435.58 606.118 2393.39 620.916 2340.16 620.916C2314.1 620.916 2288.59 617.493 2263.63 610.646C2238.67 604.019 2217.36 594.522 2199.69 582.153L2230.5 511.583C2263.63 533.449 2298.97 544.383 2336.52 544.383C2364.13 544.383 2386.22 536.873 2402.78 521.853C2419.57 507.055 2427.96 486.182 2427.96 459.235V436.705C2404.33 465.64 2371.42 480.108 2329.23 480.108C2309.79 480.108 2291.13 476.132 2273.24 468.18C2255.35 460.229 2239.55 449.295 2225.86 435.38C2212.39 421.465 2201.56 404.126 2193.39 383.364C2185.44 362.601 2181.46 340.293 2181.46 316.438C2181.46 292.363 2185.44 270.054 2193.39 249.513C2201.56 228.75 2212.39 211.412 2225.86 197.496C2239.55 183.36 2255.35 172.316 2273.24 164.365C2291.13 156.413 2309.79 152.438 2329.23 152.438ZM2351.1 231.953C2327.02 231.953 2307.47 240.125 2292.45 256.47C2277.65 272.594 2270.26 292.584 2270.26 316.438C2270.26 340.293 2277.65 360.282 2292.45 376.406C2307.47 392.53 2327.02 400.592 2351.1 400.592C2374.73 400.592 2394.06 392.641 2409.08 376.738C2424.1 360.614 2431.61 340.514 2431.61 316.438C2431.61 292.142 2424.1 272.042 2409.08 256.139C2394.28 240.015 2374.95 231.953 2351.1 231.953Z" fill="#1227E4"/>
<path d="M1977.31 32.302L2156.54 482.093H2057.81L2017.39 374.084H1819.59L1779.17 482.093H1682.76L1863.33 18.2524L1977.31 32.302ZM1918.66 109.695L1851.4 288.936H1985.58L1918.66 109.695Z" fill="#1227E4"/>
</svg>
